<svg xmlns="http://www.w3.org/2000/svg" xmlns:xlink="http://www.w3.org/1999/xlink" viewBox="0 0 512 512" width="512" height="512" preserveAspectRatio="xMidYMid meet" style="width: 100%; height: 100%; transform: translate3d(0px, 0px, 0px); content-visibility: visible;"><defs><clipPath id="__lottie_element_2"><rect width="512" height="512" x="0" y="0"/></clipPath><clipPath id="__lottie_element_4"><path d="M0,0 L28,0 L28,28 L0,28z"/></clipPath></defs><g clip-path="url(#__lottie_element_2)"><g clip-path="url(#__lottie_element_4)" transform="matrix(18.285715103149414,0,0,18.285715103149414,0,0)" opacity="1" style="display: block;"><g transform="matrix(1,0,0,1,0,0)" opacity="1" style="display: block;"><g opacity="1" transform="matrix(1,0,0,1,0,0)"><g opacity="1" transform="matrix(1,0,0,1,0,0)"><path fill="rgb(255,255,255)" fill-opacity="1" d=" M19.59000015258789,23.049999237060547 C18.75341033935547,23.049999237060547 18.065000534057617,22.361589431762695 18.065000534057617,21.524999618530273 C18.065000534057617,20.68840980529785 18.75341033935547,20 19.59000015258789,20 C20.441999435424805,20 21.1200008392334,20.677000045776367 21.1200008392334,21.530000686645508 C21.1200008392334,22.37299919128418 20.441999435424805,23.049999237060547 19.59000015258789,23.049999237060547 C19.59000015258789,23.049999237060547 19.59000015258789,23.049999237060547 19.59000015258789,23.049999237060547z M11.460000038146973,23.049999237060547 C10.616000175476074,23.049999237060547 9.9399995803833,22.37299919128418 9.9399995803833,21.530000686645508 C9.9399995803833,20.677000045776367 10.616000175476074,20 11.460000038146973,20 C12.312000274658203,20 12.979999542236328,20.677000045776367 12.979999542236328,21.530000686645508 C12.985504150390625,22.35834312438965 12.28834342956543,23.044496536254883 11.460000038146973,23.049999237060547 C11.460000038146973,23.049999237060547 11.460000038146973,23.049999237060547 11.460000038146973,23.049999237060547z M22.183000564575195,9.206999778747559 C22.183000564575195,9.206999778747559 9.14799976348877,9.206999778747559 9.14799976348877,9.206999778747559 C9.14799976348877,9.206999778747559 9.824999809265137,13.892000198364258 9.824999809265137,13.892000198364258 C9.824999809265137,13.892000198364258 20.87299919128418,13.892000198364258 20.87299919128418,13.892000198364258 C21.312999725341797,13.892000198364258 21.55900001525879,13.592000007629395 21.6200008392334,13.13599967956543 C21.6200008392334,13.13599967956543 22.183000564575195,9.206999778747559 22.183000564575195,9.206999778747559 C22.183000564575195,9.206999778747559 22.183000564575195,9.206999778747559 22.183000564575195,9.206999778747559z M10.748000144958496,18.655000686645508 C9.411999702453613,18.655000686645508 8.708999633789062,17.847000122070312 8.515999794006348,16.527999877929688 C8.515999794006348,16.527999877929688 7.144999980926514,7.193999767303467 7.144999980926514,7.193999767303467 C7.144999980926514,7.193999767303467 4.375999927520752,7.193999767303467 4.375999927520752,7.193999767303467 C3.9339029788970947,7.181842803955078 3.5748064517974854,6.81919527053833 3.566999912261963,6.376999855041504 C3.566999912261963,5.928999900817871 3.944999933242798,5.551000118255615 4.375999927520752,5.551000118255615 C4.375999927520752,5.551000118255615 7.39900016784668,5.551000118255615 7.39900016784668,5.551000118255615 C8.375,5.551000118255615 8.673999786376953,5.936999797821045 8.779000282287598,6.692999839782715 C8.779000282287598,6.692999839782715 8.918999671936035,7.659999847412109 8.918999671936035,7.659999847412109 C8.918999671936035,7.659999847412109 23.025999069213867,7.659999847412109 23.025999069213867,7.659999847412109 C23.624000549316406,7.659999847412109 23.983999252319336,8.003000259399414 23.983999252319336,8.512999534606934 C23.983999252319336,8.60099983215332 23.966999053955078,8.75 23.948999404907227,8.873000144958496 C23.948999404907227,8.873000144958496 23.290000915527344,13.293000221252441 23.290000915527344,13.293000221252441 C23.08799934387207,14.621000289916992 22.385000228881836,15.439000129699707 21.048999786376953,15.439000129699707 C21.048999786376953,15.439000129699707 10.053999900817871,15.439000129699707 10.053999900817871,15.439000129699707 C10.053999900817871,15.439000129699707 10.1850004196167,16.351999282836914 10.1850004196167,16.351999282836914 C10.246999740600586,16.801000595092773 10.51099967956543,17.107999801635742 10.940999984741211,17.107999801635742 C10.940999984741211,17.107999801635742 20.979999542236328,17.107999801635742 20.979999542236328,17.107999801635742 C21.39299964904785,17.107999801635742 21.753000259399414,17.424999237060547 21.753000259399414,17.881999969482422 C21.753000259399414,18.339000701904297 21.39299964904785,18.655000686645508 20.979999542236328,18.655000686645508 C20.979999542236328,18.655000686645508 10.748000144958496,18.655000686645508 10.748000144958496,18.655000686645508 C10.748000144958496,18.655000686645508 10.748000144958496,18.655000686645508 10.748000144958496,18.655000686645508z"/></g></g></g></g></g></svg>