<svg xmlns="http://www.w3.org/2000/svg" xmlns:xlink="http://www.w3.org/1999/xlink" viewBox="0 0 512 512" width="512" height="512" preserveAspectRatio="xMidYMid meet" style="width: 100%; height: 100%; transform: translate3d(0px, 0px, 0px); content-visibility: visible;"><defs><clipPath id="__lottie_element_2"><rect width="512" height="512" x="0" y="0"/></clipPath><clipPath id="__lottie_element_4"><path d="M0,0 L28,0 L28,28 L0,28z"/></clipPath></defs><g clip-path="url(#__lottie_element_2)"><g clip-path="url(#__lottie_element_4)" transform="matrix(18.285715103149414,0,0,18.285715103149414,0,0)" opacity="1" style="display: block;"><g transform="matrix(1,0,0,1,0,0)" opacity="1" style="display: block;"><g opacity="1" transform="matrix(1,0,0,1,0,0)"><g opacity="1" transform="matrix(1,0,0,1,0,0)"><path fill="rgb(255,255,255)" fill-opacity="1" d=" M11.170000076293945,14.22599983215332 C10.756999969482422,14.22599983215332 10.458000183105469,13.935999870300293 10.458000183105469,13.505000114440918 C10.458000183105469,13.505000114440918 10.458000183105469,13.223999977111816 10.458000183105469,13.223999977111816 C10.458000183105469,12.793000221252441 10.756999969482422,12.503000259399414 11.170000076293945,12.503000259399414 C11.170000076293945,12.503000259399414 16.847999572753906,12.503000259399414 16.847999572753906,12.503000259399414 C17.26099967956543,12.503000259399414 17.559999465942383,12.793000221252441 17.559999465942383,13.222999572753906 C17.559999465942383,13.222999572753906 17.559999465942383,13.505000114440918 17.559999465942383,13.505000114440918 C17.559999465942383,13.9350004196167 17.260000228881836,14.225000381469727 16.847999572753906,14.225000381469727 C16.847999572753906,14.225000381469727 11.170000076293945,14.225000381469727 11.170000076293945,14.225000381469727 C11.170000076293945,14.225000381469727 11.170000076293945,14.22599983215332 11.170000076293945,14.22599983215332z M9.253999710083008,20.219999313354492 C9.253999710083008,20.219999313354492 18.746000289916992,20.219999313354492 18.746000289916992,20.219999313354492 C19.483999252319336,20.219999313354492 19.898000717163086,19.823999404907227 19.898000717163086,19.07699966430664 C19.898000717163086,19.07699966430664 19.898000717163086,10.640000343322754 19.898000717163086,10.640000343322754 C19.898000717163086,10.640000343322754 8.109999656677246,10.640000343322754 8.109999656677246,10.640000343322754 C8.109999656677246,10.640000343322754 8.109999656677246,19.07699966430664 8.109999656677246,19.07699966430664 C8.109999656677246,19.823999404907227 8.515000343322754,20.219999313354492 9.253000259399414,20.219999313354492 C9.253000259399414,20.219999313354492 9.253999710083008,20.219999313354492 9.253999710083008,20.219999313354492z M7.311999797821045,9.057999610900879 C7.311999797821045,9.057999610900879 20.70599937438965,9.057999610900879 20.70599937438965,9.057999610900879 C21.110000610351562,9.057999610900879 21.277000427246094,8.873000144958496 21.277000427246094,8.468000411987305 C21.277000427246094,8.468000411987305 21.277000427246094,7.633999824523926 21.277000427246094,7.633999824523926 C21.277000427246094,7.229000091552734 21.110000610351562,7.044000148773193 20.707000732421875,7.044000148773193 C20.707000732421875,7.044000148773193 7.310999870300293,7.044000148773193 7.310999870300293,7.044000148773193 C6.896999835968018,7.044000148773193 6.730999946594238,7.229000091552734 6.730999946594238,7.633999824523926 C6.730999946594238,7.633999824523926 6.730999946594238,8.468999862670898 6.730999946594238,8.468999862670898 C6.730999946594238,8.873000144958496 6.896999835968018,9.057999610900879 7.310999870300293,9.057999610900879 C7.310999870300293,9.057999610900879 7.311999797821045,9.057999610900879 7.311999797821045,9.057999610900879z M9.184000015258789,21.871999740600586 C7.374000072479248,21.871999740600586 6.388999938964844,20.913999557495117 6.388999938964844,19.104000091552734 C6.388999938964844,19.104000091552734 6.388999938964844,10.569000244140625 6.388999938964844,10.569000244140625 C5.553999900817871,10.359000205993652 5.0879998207092285,9.67300033569336 5.0879998207092285,8.696999549865723 C5.0879998207092285,8.696999549865723 5.0879998207092285,7.414000034332275 5.0879998207092285,7.414000034332275 C5.0879998207092285,6.228000164031982 5.826000213623047,5.4629998207092285 6.9679999351501465,5.4629998207092285 C6.9679999351501465,5.4629998207092285 21.040000915527344,5.4629998207092285 21.040000915527344,5.4629998207092285 C22.226999282836914,5.4629998207092285 22.91200065612793,6.228000164031982 22.91200065612793,7.414000034332275 C22.91200065612793,7.414000034332275 22.91200065612793,8.696999549865723 22.91200065612793,8.696999549865723 C22.91200065612793,9.67300033569336 22.445999145507812,10.357999801635742 21.6200008392334,10.57800006866455 C21.6200008392334,10.57800006866455 21.6200008392334,19.104000091552734 21.6200008392334,19.104000091552734 C21.6200008392334,20.905000686645508 20.62700080871582,21.871999740600586 18.825000762939453,21.871999740600586 C18.825000762939453,21.871999740600586 9.184000015258789,21.871999740600586 9.184000015258789,21.871999740600586 C9.184000015258789,21.871999740600586 9.184000015258789,21.871999740600586 9.184000015258789,21.871999740600586z"/></g></g></g></g></g></svg>