<svg xmlns="http://www.w3.org/2000/svg" xmlns:xlink="http://www.w3.org/1999/xlink" viewBox="0 0 512 512" width="512" height="512" preserveAspectRatio="xMidYMid meet" style="width: 100%; height: 100%; transform: translate3d(0px, 0px, 0px); content-visibility: visible;"><defs><clipPath id="__lottie_element_2"><rect width="512" height="512" x="0" y="0"/></clipPath><clipPath id="__lottie_element_4"><path d="M0,0 L28,0 L28,28 L0,28z"/></clipPath></defs><g clip-path="url(#__lottie_element_2)"><g clip-path="url(#__lottie_element_4)" transform="matrix(18.285715103149414,0,0,18.285715103149414,0,0)" opacity="1" style="display: block;"><g transform="matrix(1,0,0,1,0,0)" opacity="1" style="display: block;"><g opacity="1" transform="matrix(1,0,0,1,0,0)"><g opacity="1" transform="matrix(1,0,0,1,0,0)"><path fill="rgb(255,255,255)" fill-opacity="1" d=" M14,15.246000289916992 C12.303999900817871,15.22700023651123 10.984999656677246,13.803999900817871 10.97700023651123,11.913999557495117 C10.967000007629395,10.138999938964844 12.312000274658203,8.661999702453613 14,8.661999702453613 C15.696000099182129,8.661999702453613 17.023000717163086,10.138999938964844 17.023000717163086,11.913999557495117 C17.023000717163086,13.803999900817871 15.704999923706055,15.253999710083008 14,15.244999885559082 C14,15.244999885559082 14,15.246000289916992 14,15.246000289916992z M14,16.68600082397461 C16.5049991607666,16.68600082397461 18.43000030517578,17.573999404907227 19.361000061035156,18.601999282836914 C20.603849411010742,17.25452423095703 21.294660568237305,15.487130165100098 21.295000076293945,13.654000282287598 C21.298294067382812,9.655922889709473 17.998077392578125,6.363293170928955 14,6.360000133514404 C10.001923561096191,6.356158256530762 6.708841800689697,9.656923294067383 6.704999923706055,13.654999732971191 C6.705338478088379,15.488129615783691 7.396151065826416,17.255523681640625 8.638999938964844,18.60300064086914 C9.569999694824219,17.575000762939453 11.503999710083008,16.687000274658203 14,16.687000274658203 C14,16.687000274658203 14,16.68600082397461 14,16.68600082397461z M14,22.732999801635742 C8.989999771118164,22.732999801635742 4.920000076293945,18.663999557495117 4.920000076293945,13.654000282287598 C4.920000076293945,8.644000053405762 8.989999771118164,4.574999809265137 14,4.574999809265137 C19.010000228881836,4.574999809265137 23.079999923706055,8.645000457763672 23.079999923706055,13.654999732971191 C23.079999923706055,18.665000915527344 19.010000228881836,22.732999801635742 14,22.732999801635742 C14,22.732999801635742 14,22.732999801635742 14,22.732999801635742z"/></g></g></g></g></g></svg>