<svg xmlns="http://www.w3.org/2000/svg" xmlns:xlink="http://www.w3.org/1999/xlink" viewBox="0 0 512 512" width="512" height="512" preserveAspectRatio="xMidYMid meet" style="width: 100%; height: 100%; transform: translate3d(0px, 0px, 0px); content-visibility: visible;"><defs><clipPath id="__lottie_element_2"><rect width="512" height="512" x="0" y="0"/></clipPath><linearGradient id="__lottie_element_7" spreadMethod="pad" gradientUnits="userSpaceOnUse" x1="-0.953000009059906" y1="-180.6790008544922" x2="1.5800000429153442" y2="188.35000610351562"><stop offset="0%" stop-color="rgb(255,182,0)"/><stop offset="50%" stop-color="rgb(246,156,0)"/><stop offset="100%" stop-color="rgb(237,130,0)"/></linearGradient><linearGradient id="__lottie_element_8" spreadMethod="pad" gradientUnits="userSpaceOnUse" x1="-1" y1="-171" x2="1.7300000190734863" y2="184.2899932861328"><stop offset="0%" stop-color="rgb(203,112,0)"/><stop offset="50%" stop-color="rgb(199,102,0)"/><stop offset="100%" stop-color="rgb(196,92,0)"/></linearGradient><linearGradient id="__lottie_element_9" spreadMethod="pad" gradientUnits="userSpaceOnUse" x1="93.27899932861328" y1="197.9029998779297" x2="-47.231998443603516" y2="-173.3040008544922"><stop offset="0%" stop-color="rgb(255,162,0)"/><stop offset="50%" stop-color="rgb(255,193,47)"/><stop offset="100%" stop-color="rgb(255,223,94)"/></linearGradient></defs><g clip-path="url(#__lottie_element_2)"><g transform="matrix(1.0168612003326416,-0.03670864179730415,0.035444267094135284,0.9818369150161743,248.94004821777344,254.88134765625)" opacity="1" style="display: block;"><g opacity="1" transform="matrix(1,0,0,1,0,0)"><path fill="url(#__lottie_element_7)" fill-opacity="1" d=" M-65.69999694824219,-78.69999694824219 C-65.69999694824219,-78.69999694824219 -20.399999618530273,-168.6999969482422 -20.399999618530273,-168.6999969482422 C-15.199999809265137,-178.8000030517578 -1.2000000476837158,-183.3000030517578 9.300000190734863,-178.3000030517578 C13.399999618530273,-176.3000030517578 17.600000381469727,-172.5 19.600000381469727,-168.3000030517578 C19.600000381469727,-168.3000030517578 62.70000076293945,-80.4000015258789 62.70000076293945,-80.4000015258789 C66.19999694824219,-73.19999694824219 71.9000015258789,-69.5999984741211 79.69999694824219,-68.5999984741211 C79.69999694824219,-68.5999984741211 168.39999389648438,-58 168.39999389648438,-58 C181.5,-56.400001525878906 190.8000030517578,-43.29999923706055 189.3000030517578,-30.899999618530273 C188.6999969482422,-25.799999237060547 186.39999389648438,-20.399999618530273 182.8000030517578,-16.799999237060547 C182.8000030517578,-16.799999237060547 111.80000305175781,53.5 111.80000305175781,53.5 C108.9000015258789,56.400001525878906 108.19999694824219,59.70000076293945 108.69999694824219,63.70000076293945 C108.69999694824219,63.70000076293945 120.19999694824219,158.8000030517578 120.19999694824219,158.8000030517578 C121.9000015258789,172.5 111,185.10000610351562 97.5,186.8000030517578 C92.4000015258789,187.39999389648438 86.5,186.8000030517578 81.9000015258789,184.3000030517578 C81.9000015258789,184.3000030517578 8.199999809265137,143.6999969482422 8.199999809265137,143.6999969482422 C1.2000000476837158,140.10000610351562 -3.700000047683716,140.3000030517578 -9.199999809265137,143.1999969482422 C-9.199999809265137,143.1999969482422 -85.5999984741211,182.8000030517578 -85.5999984741211,182.8000030517578 C-96.5999984741211,188.5 -111.9000015258789,184 -117.5,172.89999389648438 C-119.5999984741211,168.6999969482422 -121.30000305175781,164.3000030517578 -120.5,158.6999969482422 C-120.5,158.6999969482422 -114.5999984741211,115.5999984741211 -114.5999984741211,115.5999984741211 C-111.4000015258789,92.30000305175781 -97.4000015258789,72.80000305175781 -78.4000015258789,63 C-78.4000015258789,63 2.5,20.899999618530273 2.5,20.899999618530273 C7.599999904632568,17.899999618530273 7.900000095367432,15.100000381469727 0.4000000059604645,16.100000381469727 C0.4000000059604645,16.100000381469727 -99.80000305175781,29.799999237060547 -99.80000305175781,29.799999237060547 C-116,32.099998474121094 -133.39999389648438,26.299999237060547 -146.10000610351562,15.899999618530273 C-146.10000610351562,15.899999618530273 -180.89999389648438,-13 -180.89999389648438,-13 C-190.60000610351562,-20.600000381469727 -192.3000030517578,-37.5 -184.10000610351562,-47.70000076293945 C-180.3000030517578,-52.400001525878906 -174.1999969482422,-56.70000076293945 -168.3000030517578,-57.5 C-168.3000030517578,-57.5 -77.9000015258789,-69.19999694824219 -77.9000015258789,-69.19999694824219 C-72.0999984741211,-69.80000305175781 -68.30000305175781,-73.4000015258789 -65.69999694824219,-78.69999694824219z"/><path stroke="url(#__lottie_element_8)" stroke-linecap="round" stroke-linejoin="round" fill-opacity="0" stroke-opacity="1" stroke-width="8" d=" M-65.69999694824219,-78.69999694824219 C-65.69999694824219,-78.69999694824219 -20.399999618530273,-168.6999969482422 -20.399999618530273,-168.6999969482422 C-15.199999809265137,-178.8000030517578 -1.2000000476837158,-183.3000030517578 9.300000190734863,-178.3000030517578 C13.399999618530273,-176.3000030517578 17.600000381469727,-172.5 19.600000381469727,-168.3000030517578 C19.600000381469727,-168.3000030517578 62.70000076293945,-80.4000015258789 62.70000076293945,-80.4000015258789 C66.19999694824219,-73.19999694824219 71.9000015258789,-69.5999984741211 79.69999694824219,-68.5999984741211 C79.69999694824219,-68.5999984741211 168.39999389648438,-58 168.39999389648438,-58 C181.5,-56.400001525878906 190.8000030517578,-43.29999923706055 189.3000030517578,-30.899999618530273 C188.6999969482422,-25.799999237060547 186.39999389648438,-20.399999618530273 182.8000030517578,-16.799999237060547 C182.8000030517578,-16.799999237060547 111.80000305175781,53.5 111.80000305175781,53.5 C108.9000015258789,56.400001525878906 108.19999694824219,59.70000076293945 108.69999694824219,63.70000076293945 C108.69999694824219,63.70000076293945 120.19999694824219,158.8000030517578 120.19999694824219,158.8000030517578 C121.9000015258789,172.5 111,185.10000610351562 97.5,186.8000030517578 C92.4000015258789,187.39999389648438 86.5,186.8000030517578 81.9000015258789,184.3000030517578 C81.9000015258789,184.3000030517578 8.199999809265137,143.6999969482422 8.199999809265137,143.6999969482422 C1.2000000476837158,140.10000610351562 -3.700000047683716,140.3000030517578 -9.199999809265137,143.1999969482422 C-9.199999809265137,143.1999969482422 -85.5999984741211,182.8000030517578 -85.5999984741211,182.8000030517578 C-96.5999984741211,188.5 -111.9000015258789,184 -117.5,172.89999389648438 C-119.5999984741211,168.6999969482422 -121.30000305175781,164.3000030517578 -120.5,158.6999969482422 C-120.5,158.6999969482422 -114.5999984741211,115.5999984741211 -114.5999984741211,115.5999984741211 C-111.4000015258789,92.30000305175781 -97.4000015258789,72.80000305175781 -78.4000015258789,63 C-78.4000015258789,63 2.5,20.899999618530273 2.5,20.899999618530273 C7.599999904632568,17.899999618530273 7.900000095367432,15.100000381469727 0.4000000059604645,16.100000381469727 C0.4000000059604645,16.100000381469727 -99.80000305175781,29.799999237060547 -99.80000305175781,29.799999237060547 C-116,32.099998474121094 -133.39999389648438,26.299999237060547 -146.10000610351562,15.899999618530273 C-146.10000610351562,15.899999618530273 -180.89999389648438,-13 -180.89999389648438,-13 C-190.60000610351562,-20.600000381469727 -192.3000030517578,-37.5 -184.10000610351562,-47.70000076293945 C-180.3000030517578,-52.400001525878906 -174.1999969482422,-56.70000076293945 -168.3000030517578,-57.5 C-168.3000030517578,-57.5 -77.9000015258789,-69.19999694824219 -77.9000015258789,-69.19999694824219 C-72.0999984741211,-69.80000305175781 -68.30000305175781,-73.4000015258789 -65.69999694824219,-78.69999694824219z"/></g><g opacity="1" transform="matrix(1,0,0,1,0,0)"><path fill="url(#__lottie_element_9)" fill-opacity="1" d=" M103.5,155.6999969482422 C103.5,155.6999969482422 91.80000305175781,62.900001525878906 91.80000305175781,62.900001525878906 C90.80000305175781,54.900001525878906 93.5999984741211,47.599998474121094 100,41.5 C100,41.5 168.6999969482422,-26.600000381469727 168.6999969482422,-26.600000381469727 C170.1999969482422,-28.100000381469727 171,-31.200000762939453 171,-33.29999923706055 C171,-38.400001525878906 167.60000610351562,-41.29999923706055 162.6999969482422,-41.900001525878906 C162.6999969482422,-41.900001525878906 75.9000015258789,-52.5 75.9000015258789,-52.5 C63.79999923706055,-54 53.20000076293945,-61.79999923706055 47.79999923706055,-72.80000305175781 C47.79999923706055,-72.80000305175781 6.199999809265137,-158 6.199999809265137,-158 C5.400000095367432,-159.60000610351562 3.4000000953674316,-160.89999389648438 1.7999999523162842,-161.60000610351562 C-0.30000001192092896,-162.60000610351562 -4.800000190734863,-161.5 -6.699999809265137,-157.5 C-6.699999809265137,-157.5 -52.20000076293945,-70 -52.20000076293945,-70 C-56.70000076293945,-61 -65.4000015258789,-54.70000076293945 -75.4000015258789,-53.400001525878906 C-75.4000015258789,-53.400001525878906 -163.10000610351562,-41.400001525878906 -163.10000610351562,-41.400001525878906 C-165.6999969482422,-41.099998474121094 -168.1999969482422,-40.099998474121094 -169.8000030517578,-38 C-172.5,-34.5 -171.39999389648438,-26.399999618530273 -167.10000610351562,-22.799999237060547 C-167.10000610351562,-22.799999237060547 -133.6999969482422,4.599999904632568 -133.6999969482422,4.599999904632568 C-124.0999984741211,12.5 -112.5,16.399999618530273 -100.19999694824219,14.699999809265137 C-100.19999694824219,14.699999809265137 3.700000047683716,-0.30000001192092896 3.700000047683716,-0.30000001192092896 C11.199999809265137,-1.399999976158142 18.5,2.5 21.899999618530273,9.199999809265137 C26.200000762939453,17.799999237060547 22.399999618530273,28.100000381469727 13.800000190734863,32.5 C13.800000190734863,32.5 -70,75.5 -70,75.5 C-85,83.19999694824219 -95.30000305175781,97.80000305175781 -97.69999694824219,114.69999694824219 C-97.69999694824219,114.69999694824219 -103.5999984741211,157.3000030517578 -103.5999984741211,157.3000030517578 C-103.9000015258789,159.1999969482422 -103,162.10000610351562 -101.69999694824219,163.5 C-98.4000015258789,167.1999969482422 -94.69999694824219,168.3000030517578 -90.30000305175781,166.10000610351562 C-90.30000305175781,166.10000610351562 -15.399999618530273,127.5 -15.399999618530273,127.5 C-5,122.19999694824219 5.699999809265137,123.0999984741211 14.800000190734863,128.10000610351562 C14.800000190734863,128.10000610351562 87.0999984741211,167.8000030517578 87.0999984741211,167.8000030517578 C89.19999694824219,168.89999389648438 92.5,169.3000030517578 94.80000305175781,168.8000030517578 C99.80000305175781,167.60000610351562 104.30000305175781,162.10000610351562 103.5,155.6999969482422z"/></g><g opacity="1" transform="matrix(1,0,0,1,0,0)"><path fill="rgb(255,217,103)" fill-opacity="1" d=" M75.9000015258789,-52.5 C63.79999923706055,-54 53.20000076293945,-61.79999923706055 47.79999923706055,-72.80000305175781 C47.79999923706055,-72.80000305175781 6.199999809265137,-158 6.199999809265137,-158 C5.400000095367432,-159.60000610351562 4,-160.8000030517578 2.5,-161.5 C-0.20000000298023224,-162.6999969482422 -5.5,-161.89999389648438 -7.400000095367432,-158 C-7.400000095367432,-158 -52.20000076293945,-70 -52.20000076293945,-70 C-56.70000076293945,-61 -65.4000015258789,-54.70000076293945 -75.4000015258789,-53.400001525878906 C-75.4000015258789,-53.400001525878906 -163.10000610351562,-41.400001525878906 -163.10000610351562,-41.400001525878906 C-165.6999969482422,-41.099998474121094 -168.1999969482422,-40.099998474121094 -169.8000030517578,-38 C-172.60000610351562,-34.20000076293945 -171.39999389648438,-26.399999618530273 -167.10000610351562,-22.799999237060547 C-167.10000610351562,-22.799999237060547 -133.6999969482422,4.599999904632568 -133.6999969482422,4.599999904632568 C-124.0999984741211,12.5 -112.5,16.399999618530273 -100.19999694824219,14.699999809265137 C-100.19999694824219,14.699999809265137 3.700000047683716,-0.30000001192092896 3.700000047683716,-0.30000001192092896 C11.199999809265137,-1.399999976158142 18.5,2.5 21.899999618530273,9.199999809265137 C22.299999237060547,10 22.600000381469727,10.800000190734863 22.899999618530273,11.600000381469727 C49.900001525878906,-4.099999904632568 87,-26.200000762939453 118.0999984741211,-47.29999923706055 C118.0999984741211,-47.29999923706055 75.9000015258789,-52.5 75.9000015258789,-52.5z"/></g><g opacity="1" transform="matrix(1,0,0,1,0,0)"><path stroke-linecap="round" stroke-linejoin="round" fill-opacity="0" stroke="rgb(255,255,255)" stroke-opacity="1" stroke-width="17" d=" M-162.5,-33 C-162.5,-33 -71.19999694824219,-45.900001525878906 -71.19999694824219,-45.900001525878906 C-61.29999923706055,-47.29999923706055 -50.79999923706055,-55.20000076293945 -45.5,-63.79999923706055 C-45.5,-63.79999923706055 -0.10000000149011612,-152.1999969482422 -0.10000000149011612,-152.1999969482422"/></g></g></g></svg>