<svg xmlns="http://www.w3.org/2000/svg" xmlns:xlink="http://www.w3.org/1999/xlink" viewBox="0 0 512 512" width="512" height="512" preserveAspectRatio="xMidYMid meet" style="width: 100%; height: 100%; transform: translate3d(0px, 0px, 0px); content-visibility: visible;"><defs><clipPath id="__lottie_element_2"><rect width="512" height="512" x="0" y="0"/></clipPath><clipPath id="__lottie_element_4"><path d="M0,0 L28,0 L28,28 L0,28z"/></clipPath></defs><g clip-path="url(#__lottie_element_2)"><g clip-path="url(#__lottie_element_4)" transform="matrix(18.285715103149414,0,0,18.285715103149414,0,0)" opacity="1" style="display: block;"><g transform="matrix(1,0,0,1,0,0)" opacity="1" style="display: block;"><g opacity="1" transform="matrix(1,0,0,1,0,0)"><g opacity="1" transform="matrix(1,0,0,1,0,0)"><path fill="rgb(255,255,255)" fill-opacity="1" d=" M14.878999710083008,20.950000762939453 C14.878999710083008,20.950000762939453 18.56999969482422,20.950000762939453 18.56999969482422,20.950000762939453 C19.264999389648438,20.950000762939453 19.65999984741211,20.554000854492188 19.65999984741211,19.868000030517578 C19.65999984741211,19.868000030517578 19.65999984741211,14.805999755859375 19.65999984741211,14.805999755859375 C19.65999984741211,14.805999755859375 14.880000114440918,14.805999755859375 14.880000114440918,14.805999755859375 C14.880000114440918,14.805999755859375 14.880000114440918,20.948999404907227 14.880000114440918,20.948999404907227 C14.880000114440918,20.948999404907227 14.878999710083008,20.950000762939453 14.878999710083008,20.950000762939453z M13.112000465393066,20.950000762939453 C13.112000465393066,20.950000762939453 13.112000465393066,14.805999755859375 13.112000465393066,14.805999755859375 C13.112000465393066,14.805999755859375 8.34000015258789,14.805999755859375 8.34000015258789,14.805999755859375 C8.34000015258789,14.805999755859375 8.34000015258789,19.868000030517578 8.34000015258789,19.868000030517578 C8.34000015258789,20.554000854492188 8.72700023651123,20.948999404907227 9.420000076293945,20.948999404907227 C9.420000076293945,20.948999404907227 13.112000465393066,20.948999404907227 13.112000465393066,20.948999404907227 C13.112000465393066,20.948999404907227 13.112000465393066,20.950000762939453 13.112000465393066,20.950000762939453z M14.878999710083008,13.25 C14.878999710083008,13.25 20.292999267578125,13.25 20.292999267578125,13.25 C20.71500015258789,13.25 20.881999969482422,13.083000183105469 20.881999969482422,12.670000076293945 C20.881999969482422,12.670000076293945 20.881999969482422,10.876999855041504 20.881999969482422,10.876999855041504 C20.881999969482422,10.454999923706055 20.71500015258789,10.279000282287598 20.292999267578125,10.279000282287598 C20.292999267578125,10.279000282287598 14.878999710083008,10.279000282287598 14.878999710083008,10.279000282287598 C14.878999710083008,10.279000282287598 14.878999710083008,13.25 14.878999710083008,13.25 C14.878999710083008,13.25 14.878999710083008,13.25 14.878999710083008,13.25z M13.112000465393066,13.25 C13.112000465393066,13.25 13.112000465393066,10.279999732971191 13.112000465393066,10.279999732971191 C13.112000465393066,10.279999732971191 7.716000080108643,10.279999732971191 7.716000080108643,10.279999732971191 C7.294000148773193,10.279999732971191 7.118000030517578,10.454999923706055 7.118000030517578,10.876999855041504 C7.118000030517578,10.876999855041504 7.118000030517578,12.652000427246094 7.118000030517578,12.652000427246094 C7.118000030517578,13.074000358581543 7.294000148773193,13.25 7.716000080108643,13.25 C7.716000080108643,13.25 13.112000465393066,13.25 13.112000465393066,13.25 C13.112000465393066,13.25 13.112000465393066,13.25 13.112000465393066,13.25z M14.826000213623047,8.722999572753906 C14.826000213623047,8.722999572753906 16.152999877929688,8.722999572753906 16.152999877929688,8.722999572753906 C17.49799919128418,8.722999572753906 18.280000686645508,7.9770002365112305 18.280000686645508,7.019000053405762 C18.280000686645508,6.078999996185303 17.621000289916992,5.506999969482422 16.672000885009766,5.506999969482422 C15.652000427246094,5.506999969482422 14.826000213623047,6.315000057220459 14.826000213623047,7.554999828338623 C14.826000213623047,7.554999828338623 14.826000213623047,8.723999977111816 14.826000213623047,8.723999977111816 C14.826000213623047,8.723999977111816 14.826000213623047,8.722999572753906 14.826000213623047,8.722999572753906z M13.164999961853027,8.722999572753906 C13.164999961853027,8.722999572753906 13.164999961853027,7.556000232696533 13.164999961853027,7.556000232696533 C13.164999961853027,6.315999984741211 12.347999572753906,5.507999897003174 11.32800006866455,5.507999897003174 C10.378000259399414,5.507999897003174 9.720000267028809,6.078999996185303 9.720000267028809,7.019999980926514 C9.720000267028809,7.978000164031982 10.493000030517578,8.725000381469727 11.847000122070312,8.725000381469727 C11.847000122070312,8.725000381469727 13.164999961853027,8.725000381469727 13.164999961853027,8.725000381469727 C13.164999961853027,8.725000381469727 13.164999961853027,8.722999572753906 13.164999961853027,8.722999572753906z M9.218999862670898,22.523000717163086 C7.558000087738037,22.523000717163086 6.635000228881836,21.625999450683594 6.635000228881836,19.96500015258789 C6.635000228881836,19.96500015258789 6.635000228881836,14.699999809265137 6.635000228881836,14.699999809265137 C6.635000228881836,14.699999809265137 6.581999778747559,14.699999809265137 6.581999778747559,14.699999809265137 C5.816999912261963,14.489999771118164 5.413000106811523,13.829999923706055 5.413000106811523,12.880000114440918 C5.413000106811523,12.880000114440918 5.413000106811523,10.64799976348877 5.413000106811523,10.64799976348877 C5.413000106811523,9.461999893188477 6.116000175476074,8.723999977111816 7.258999824523926,8.723999977111816 C7.258999824523926,8.723999977111816 8.788999557495117,8.723999977111816 8.788999557495117,8.723999977111816 C8.29959774017334,8.225305557250977 8.030017852783203,7.550634384155273 8.041000366210938,6.8520002365112305 C8.041000366210938,5.111999988555908 9.430000305175781,3.8540000915527344 11.178999900817871,3.8540000915527344 C12.470999717712402,3.8540000915527344 13.569000244140625,4.584000110626221 14,5.867000102996826 C14.430000305175781,4.584000110626221 15.520000457763672,3.8540000915527344 16.820999145507812,3.8540000915527344 C18.56100082397461,3.8540000915527344 19.958999633789062,5.111000061035156 19.958999633789062,6.8520002365112305 C19.967185974121094,7.55165958404541 19.69475746154785,8.226241111755371 19.202999114990234,8.723999977111816 C19.202999114990234,8.723999977111816 20.740999221801758,8.723999977111816 20.740999221801758,8.723999977111816 C21.92799949645996,8.723999977111816 22.586999893188477,9.461999893188477 22.586999893188477,10.64799976348877 C22.586999893188477,10.64799976348877 22.586999893188477,12.880999565124512 22.586999893188477,12.880999565124512 C22.586999893188477,13.831000328063965 22.183000564575195,14.48900032043457 21.417999267578125,14.701000213623047 C21.417999267578125,14.701000213623047 21.364999771118164,14.701000213623047 21.364999771118164,14.701000213623047 C21.364999771118164,14.701000213623047 21.364999771118164,19.96500015258789 21.364999771118164,19.96500015258789 C21.364999771118164,21.625999450683594 20.43400001525879,22.523000717163086 18.773000717163086,22.523000717163086 C18.773000717163086,22.523000717163086 9.218999862670898,22.523000717163086 9.218999862670898,22.523000717163086 C9.218999862670898,22.523000717163086 9.218999862670898,22.523000717163086 9.218999862670898,22.523000717163086z"/></g></g></g></g></g></svg>